<svg xmlns="http://www.w3.org/2000/svg" viewBox="0 0 250 56">
<path fill="none" d="M-23.5-22.5h307.7V80.1H-23.5z"/>
<path d="M139.7 17.4h-7.4v22.8h7.4c3.5 0 6.5-1.2 8.7-3.6 1.9-2.1 2.9-4.8 2.9-7.8 0-7.5-5.8-11.4-11.6-11.4zm6.5 17.2c-1.5 1.7-3.8 2.6-6.4 2.6h-4.4V20.4h4.4c5.9 0 8.6 4.4 8.6 8.4-.1 2.2-.8 4.3-2.2 5.8zm-37.9 5.6H124v-3h-12.7v-7.4h9.9v-3h-9.9v-6.4H124v-3h-15.7zm-23.1-6l-8.6-18-6.8 24h3.1l4.4-15.7L85.2 41l7.9-16.5 4.4 15.7h3.1l-6.8-24zm125.7-17.3c-6.6 0-11.9 5.4-11.9 11.9s5.4 11.9 11.9 11.9c6.6 0 11.9-5.4 11.9-11.9s-5.3-11.9-11.9-11.9zm0 20.9c-4.9 0-9-4-9-9 0-4.9 4-9 9-9 4.9 0 9 4 9 9s-4.1 9-9 9zM247 17.4v16.5l-16.5-17.6v23.9h3V23.8L250 41.4v-24zm-88.2 0h3v22.8h-3zm33.5 11.4c0-6.6-5.4-11.9-11.9-11.9-6.6 0-11.9 5.4-11.9 11.9s5.4 11.9 11.9 11.9c1.7 0 3.3-.4 4.8-1l-2.3-2.3c-.8.2-1.6.4-2.5.4-4.9 0-9-4-9-9 0-4.9 4-9 9-9 4.9 0 9 4 9 9 0 1.9-.6 3.7-1.7 5.2l-1.8-1.8h-4.2l2.2 2.2 4.6 4.6 1.2 1.2h4.2l-4.1-4.1c1.5-2 2.5-4.5 2.5-7.3z" fill="#00b4ff"/>
<path d="M28.1.6C12.9.6.5 12.9.5 28.2c0 15.2 12.4 27.6 27.6 27.6 3.5 0 6.9-.7 10.1-1.9.1 0 .2-.1.2-.1l-7.2-7.2c-.2 0-.4.1-.6.1h-.2c-.9.1-1.6.2-2.3.2-10.3 0-18.6-8.4-18.6-18.6C9.5 18 17.9 9.7 28.1 9.7c10.3 0 18.6 8.4 18.6 18.6 0 3.2-.8 6.3-2.4 9.1l-.3.5-3.3-3.3H28.1l20.1 20.1h12.7L50.5 44.2l.2-.3c3.3-4.7 5-10.1 5-15.8C55.7 12.9 43.3.6 28.1.6z" fill="#00b4ff"/>
</svg>