<?xml version="1.0" encoding="utf-8"?>
<!-- Generator: Adobe Illustrator 24.1.2, SVG Export Plug-In . SVG Version: 6.00 Build 0)  -->
<svg version="1.1" baseProfile="basic" xmlns="http://www.w3.org/2000/svg" xmlns:xlink="http://www.w3.org/1999/xlink" x="0px"
	 y="0px" viewBox="0 0 382.7 127.6" xml:space="preserve">
<style type="text/css">
	.st0{fill:none;}
	.st1{fill:#009EE3;}
</style>
<g id="Schutzzone">
</g>
<g id="Logo">
	<rect class="st0" width="382.7" height="127.6"/>
	<g>
		<path d="M203,49.7h-9.1V78h9.1c4.4,0,8.1-1.5,10.8-4.5c2.3-2.6,3.6-6,3.6-9.7C217.4,54.5,210.2,49.7,203,49.7z M211.1,71.1
			c-1.9,2.1-4.7,3.2-8,3.2h-5.4V53.4h5.4c7.3,0,10.7,5.4,10.7,10.5C213.7,66.6,212.8,69.2,211.1,71.1z"/>
		<polygon points="164,78 183.4,78 183.4,74.3 167.7,74.3 167.7,65 180,65 180,61.3 167.7,61.3 167.7,53.4 183.4,53.4 183.4,49.7 
			164,49.7 		"/>
		<polygon points="135.2,70.5 124.5,48.1 116,78 119.9,78 125.4,58.5 135.2,79 145,58.5 150.5,78 154.4,78 145.9,48.1 		"/>
		<path d="M291.5,49c-8.2,0-14.9,6.7-14.9,14.9s6.7,14.9,14.9,14.9c8.2,0,14.9-6.7,14.9-14.9S299.7,49,291.5,49z M291.5,75
			c-6.2,0-11.2-5-11.2-11.2c0-6.2,5-11.2,11.2-11.2c6.2,0,11.2,5,11.2,11.2C302.7,70,297.7,75,291.5,75z"/>
		<polygon points="336.5,49.7 336.5,70.1 315.9,48.2 315.9,78 319.6,78 319.6,57.6 340.2,79.4 340.2,49.7 		"/>
		<rect x="226.8" y="49.7" width="3.7" height="28.3"/>
		<path d="M268.4,63.8c0-8.2-6.7-14.9-14.9-14.9c-8.2,0-14.9,6.7-14.9,14.9s6.7,14.9,14.9,14.9c2.1,0,4.1-0.5,6-1.3l-2.9-2.9
			c-1,0.3-2,0.5-3.1,0.5c-6.2,0-11.2-5-11.2-11.2c0-6.2,5-11.2,11.2-11.2s11.2,5,11.2,11.2c0,2.4-0.8,4.6-2.1,6.5l-2.2-2.2h-5.2
			l2.7,2.7l5.7,5.7l1.5,1.5h5.2l-5.1-5.1C267.2,70.4,268.4,67.3,268.4,63.8z"/>
	</g>
	<g>
		<path class="st1" d="M64.2,28.7c-18.9,0-34.3,15.4-34.3,34.3c0,18.9,15.4,34.3,34.3,34.3c4.4,0,8.6-0.8,12.6-2.4
			c0.1,0,0.2-0.1,0.3-0.1l-9-9c-0.3,0-0.5,0.1-0.8,0.1l-0.2,0c-1.1,0.1-2,0.2-2.9,0.2c-12.8,0-23.2-10.4-23.2-23.2
			c0-12.8,10.4-23.2,23.2-23.2C77,39.9,87.4,50.2,87.4,63c0,4-1,7.9-3,11.3L84,74.9l-4.1-4.1H64.1l25,25h15.8L92.1,83l0.2-0.3
			c4.1-5.8,6.2-12.6,6.2-19.6C98.5,44.1,83.1,28.7,64.2,28.7z"/>
	</g>
	<g>
	</g>
	<g>
	</g>
	<g>
	</g>
	<g>
	</g>
	<g>
	</g>
	<g>
	</g>
</g>
</svg>
