<svg width="59.99999999999999" height="55" xmlns="http://www.w3.org/2000/svg">
 <g>
  <title>mediqon</title>
  <rect fill="#fff" fill-opacity="1" id="canvas_background" height="402" width="582" y="-1" x="-1"/>
 </g>
 <g>
  <title>imago</title>
  <path id="mediqon" fill="#00b4ff" d="m27.6,0c-15.2,0 -27.6,12.3 -27.6,27.6c0,15.2 12.4,27.6 27.6,27.6c3.5,0 6.9,-0.7 10.1,-1.9c0.1,0 0.2,-0.1 0.2,-0.1l-7.2,-7.2c-0.2,0 -0.4,0.1 -0.6,0.1l-0.2,0c-0.9,0.1 -1.6,0.2 -2.3,0.2c-10.3,0 -18.6,-8.4 -18.6,-18.6c0,-10.3 8.4,-18.6 18.6,-18.6c10.3,0 18.6,8.4 18.6,18.6c0,3.2 -0.8,6.3 -2.4,9.1l-0.3,0.5l-3.3,-3.3l-12.6,0l20.1,20.1l12.7,0l-10.4,-10.5l0.2,-0.3c3.3,-4.7 5,-10.1 5,-15.8c0,-15.2 -12.4,-27.5 -27.6,-27.5z"/>
 </g>
</svg>